<svg width="24" height="25" viewBox="0 0 24 25" fill="none" xmlns="http://www.w3.org/2000/svg">
<path d="M22.56 12.86C22.56 12.08 22.49 11.33 22.36 10.61H12V14.865H17.92C17.665 16.24 16.89 17.405 15.725 18.185V20.945H19.28C21.36 19.03 22.56 16.21 22.56 12.86Z" fill="#4285F4"/>
<path d="M11.9999 23.61C14.9699 23.61 17.4599 22.6249 19.2799 20.945L15.7249 18.185C14.7399 18.845 13.4799 19.235 11.9999 19.235C9.13492 19.235 6.70992 17.3 5.84492 14.7H2.16992V17.55C3.97992 21.145 7.69992 23.61 11.9999 23.61Z" fill="#34A853"/>
<path d="M5.845 14.7C5.625 14.04 5.5 13.335 5.5 12.61C5.5 11.885 5.625 11.18 5.845 10.52V7.67004H2.17C1.4 9.2029 0.999321 10.8947 1 12.61C1 14.385 1.425 16.065 2.17 17.55L5.845 14.7Z" fill="#FBBC05"/>
<path d="M11.9999 5.98499C13.6149 5.98499 15.0649 6.53999 16.2049 7.62999L19.3599 4.47499C17.4549 2.69999 14.9649 1.60999 11.9999 1.60999C7.69992 1.60999 3.97992 4.07499 2.16992 7.66999L5.84492 10.52C6.70992 7.91999 9.13492 5.98499 11.9999 5.98499Z" fill="#EA4335"/>
</svg>
