<svg width="25" height="24" viewBox="0 0 25 24" fill="none" xmlns="http://www.w3.org/2000/svg">
<g clip-path="url(#clip0_13_83)">
<path d="M17.4752 14.85C17.2919 14.7833 17.1544 14.65 17.0627 14.45C16.971 14.25 16.9669 14.0583 17.0502 13.875C17.1835 13.575 17.2794 13.2625 17.3377 12.9375C17.396 12.6125 17.4252 12.2417 17.4252 11.825C17.4252 10.5083 16.9169 9.33333 15.9002 8.3C14.8835 7.26667 13.7002 6.75 12.3502 6.75C12.0169 6.75 11.6752 6.77917 11.3252 6.8375C10.9752 6.89583 10.6335 6.99167 10.3002 7.125C10.1002 7.20833 9.90852 7.20833 9.72519 7.125C9.54187 7.04167 9.40853 6.9 9.3252 6.7C9.24187 6.5 9.25019 6.30417 9.35019 6.1125C9.4502 5.92083 9.59187 5.78333 9.7752 5.7C10.1919 5.53333 10.6127 5.41667 11.0377 5.35C11.4627 5.28333 11.9085 5.25 12.3752 5.25C14.1919 5.25 15.7377 5.89583 17.0127 7.1875C18.2877 8.47917 18.9252 10.025 18.9252 11.825C18.9252 12.3583 18.896 12.8208 18.8377 13.2125C18.7794 13.6042 18.6669 14.0083 18.5002 14.425C18.4169 14.625 18.271 14.7625 18.0627 14.8375C17.8544 14.9125 17.6585 14.9167 17.4752 14.85ZM12.2002 2.5C12.0002 2.5 11.8252 2.425 11.6752 2.275C11.5252 2.125 11.4502 1.95 11.4502 1.75V0.75C11.4502 0.533333 11.5252 0.354167 11.6752 0.2125C11.8252 0.0708333 12.0002 0 12.2002 0C12.4169 0 12.596 0.0708333 12.7377 0.2125C12.8794 0.354167 12.9502 0.533333 12.9502 0.75V1.75C12.9502 1.95 12.8794 2.125 12.7377 2.275C12.596 2.425 12.4169 2.5 12.2002 2.5ZM12.2002 24C12.0002 24 11.8252 23.925 11.6752 23.775C11.5252 23.625 11.4502 23.45 11.4502 23.25V22.25C11.4502 22.0333 11.5252 21.8542 11.6752 21.7125C11.8252 21.5708 12.0002 21.5 12.2002 21.5C12.4169 21.5 12.596 21.5708 12.7377 21.7125C12.8794 21.8542 12.9502 22.0333 12.9502 22.25V23.25C12.9502 23.45 12.8794 23.625 12.7377 23.775C12.596 23.925 12.4169 24 12.2002 24ZM18.8252 5.35C18.6752 5.2 18.6002 5.02083 18.6002 4.8125C18.6002 4.60417 18.6752 4.425 18.8252 4.275L19.5252 3.575C19.6919 3.425 19.8794 3.35 20.0877 3.35C20.296 3.35 20.4752 3.425 20.6252 3.575C20.7752 3.725 20.846 3.90417 20.8377 4.1125C20.8294 4.32083 20.7502 4.5 20.6002 4.65L19.9002 5.35C19.7502 5.5 19.571 5.575 19.3627 5.575C19.1544 5.575 18.9752 5.5 18.8252 5.35ZM3.8002 20.4C3.6502 20.25 3.5752 20.0708 3.5752 19.8625C3.5752 19.6542 3.6502 19.475 3.8002 19.325L4.5002 18.625C4.6502 18.4917 4.82103 18.425 5.0127 18.425C5.20437 18.425 5.3752 18.4917 5.5252 18.625C5.6752 18.7583 5.75852 18.9333 5.7752 19.15C5.79187 19.3667 5.7252 19.55 5.5752 19.7L4.8752 20.4C4.7252 20.55 4.54603 20.625 4.3377 20.625C4.12937 20.625 3.9502 20.55 3.8002 20.4ZM22.4502 12.75C22.2502 12.75 22.0752 12.675 21.9252 12.525C21.7752 12.375 21.7002 12.2 21.7002 12C21.7002 11.7833 21.7752 11.6042 21.9252 11.4625C22.0752 11.3208 22.2502 11.25 22.4502 11.25H23.4502C23.6669 11.25 23.846 11.3208 23.9877 11.4625C24.1294 11.6042 24.2002 11.7833 24.2002 12C24.2002 12.2 24.1294 12.375 23.9877 12.525C23.846 12.675 23.6669 12.75 23.4502 12.75H22.4502ZM1.2002 12.75C1.0002 12.75 0.825195 12.675 0.675195 12.525C0.525195 12.375 0.450195 12.2 0.450195 12C0.450195 11.7833 0.525195 11.6042 0.675195 11.4625C0.825195 11.3208 1.0002 11.25 1.2002 11.25H2.2002C2.41687 11.25 2.59603 11.3208 2.7377 11.4625C2.87937 11.6042 2.9502 11.7833 2.9502 12C2.9502 12.2 2.87937 12.375 2.7377 12.525C2.59603 12.675 2.41687 12.75 2.2002 12.75H1.2002ZM19.5252 20.4L18.8252 19.7C18.6752 19.55 18.6044 19.3792 18.6127 19.1875C18.621 18.9958 18.6919 18.825 18.8252 18.675C18.9585 18.5417 19.1335 18.4625 19.3502 18.4375C19.5669 18.4125 19.7502 18.475 19.9002 18.625L20.6002 19.325C20.7502 19.475 20.821 19.65 20.8127 19.85C20.8044 20.05 20.7335 20.225 20.6002 20.375C20.4669 20.525 20.2919 20.6042 20.0752 20.6125C19.8585 20.6208 19.6752 20.55 19.5252 20.4ZM4.5002 5.35L3.8002 4.65C3.6502 4.5 3.57937 4.32917 3.5877 4.1375C3.59603 3.94583 3.66687 3.775 3.8002 3.625C3.93353 3.475 4.10853 3.39167 4.3252 3.375C4.54187 3.35833 4.7252 3.425 4.8752 3.575L5.5752 4.275C5.7252 4.425 5.8002 4.60417 5.8002 4.8125C5.8002 5.02083 5.7252 5.2 5.5752 5.35C5.4252 5.5 5.24603 5.575 5.0377 5.575C4.82937 5.575 4.6502 5.5 4.5002 5.35ZM12.2002 18.75C10.3335 18.75 8.74187 18.0917 7.4252 16.775C6.10853 15.4583 5.4502 13.8667 5.4502 12C5.4502 11.35 5.54603 10.6875 5.7377 10.0125C5.92937 9.3375 6.24187 8.70833 6.6752 8.125C6.74187 8.04167 6.8252 7.96667 6.9252 7.9C7.0252 7.83333 7.14187 7.8 7.2752 7.8C7.40852 7.8 7.5377 7.8375 7.6627 7.9125C7.7877 7.9875 7.88353 8.08333 7.9502 8.2C8.88352 9.9 10.046 11.4292 11.4377 12.7875C12.8294 14.1458 14.3669 15.2917 16.0502 16.225C16.1669 16.2917 16.2627 16.375 16.3377 16.475C16.4127 16.575 16.4502 16.6917 16.4502 16.825C16.4502 16.9583 16.421 17.0792 16.3627 17.1875C16.3044 17.2958 16.2252 17.3917 16.1252 17.475C15.5419 17.9083 14.9169 18.2292 14.2502 18.4375C13.5835 18.6458 12.9002 18.75 12.2002 18.75Z" fill="#051619"/>
</g>
<defs>
<clipPath id="clip0_13_83">
<rect width="24" height="24" fill="white" transform="translate(0.200195)"/>
</clipPath>
</defs>
</svg>
